# xmcd CD database file
#
# Track frame offsets:
#	150
#	21408
#	37242
#
# Disc length: 681 seconds
#
# Revision: 0
# Processed by: cddbd v1.5.2PL0 Copyright (c) Steve Scherf et al.
# Submitted via: CDex 1.51
#
DISCID=2402a703
DTITLE=Juhu Beach - EP
DYEAR=2005
DGENRE=Merengue
TTITLE0=The Catalyst
TTITLE1=Kids
TTITLE2=Old Crimes
EXTD=YEAR: 2005
EXTT0=
EXTT1=
EXTT2=
PLAYORDER=
